When a 'Single White Female' places an ad in the press for a similar woman to rent a room (to replace the boyfriend she's just left), all the applicants seem weird. Then along comes a level headed woman who seems to be just right. The new lodger has a secret past which haunts her. Format                                   : AVI
Format/Info                              : Audio Video Interleave
Format profile                           : OpenDML
File size                                : 1.02 GiB
Duration                                 : 1h 43mn
Overall bit rate                         : 1 414 Kbps
Movie name                               : Single White Female (1992) DVDRip XviD AC3 peaSoup
Writing application                      : Lavf53.21.0
Original source form/Name                : DVD_VIDEO

Video
ID                                       : 0
Format                                   : MPEG-4 Visual
Format profile                           : Advanced Simple@L5
Format settings, BVOP                    : 2
Format settings, QPel                    : No
Format settings, GMC                     : No warppoints
Format settings, Matrix                  : Default (H.263)
Muxing mode                              : Packed bitstream
Codec ID                                 : XVID
Codec ID/Hint                            : XviD
Duration                                 : 1h 43mn
Bit rate                                 : 1 208 Kbps
Width                                    : 720 pixels
Height                                   : 414 pixels
Display aspect ratio                     : 1.739
Frame rate                               : 25.000 fps
Color space                              : YUV
Chroma subsampling                       : 4:2:0
Bit depth                                : 8 bits
Scan type                                : Progressive
Compression mode                         : Lossy
Bits/(Pixel*Frame)                       : 0.162
Stream size                              : 895 MiB (85%)
Writing library                          : XviD 1.2.1 (UTC 2008-12-04)

Audio
ID                                       : 1
Format                                   : AC-3
Format/Info                              : Audio Coding 3
Format profile                           : Dolby Digital
Mode extension                           : CM (complete main)
Format settings, Endianness              : Big
Codec ID                                 : 2000
Duration                                 : 1h 43mn
Bit rate mode                            : Constant
Bit rate                                 : 192 Kbps
Channel(s)                               : 2 channels
Channel positions                        : Front: L R
Sampling rate                            : 48.0 KHz
Bit depth                                : 16 bits
Compression mode                         : Lossy
Stream size                              : 142 MiB (14%)
Alignment                                : Aligned on interleaves
Interleave, duration                     : 32 ms (0.80 video frame)

